ffmpeg started on 2016-12-02 at 05:14:30
Report written to "Output/x264/results/ffmpeg/old_town_cross_2160p50slower6000k.log"
Command line:
Tools/ffmpeg/ffmpeg -benchmark -y -i Input/y4m/old_town_cross_2160p50.y4m -c:v libx264 -preset slower -b:v 6000k -an Output/x264/encoded/old_town_cross_2160p50slower6000k.mkv
ffmpeg version N-82227-gdb23fde Copyright (c) 2000-2016 the FFmpeg developers
  built with gcc 5.4.0 (Ubuntu 5.4.0-6ubuntu1~16.04.2) 20160609
  configuration: --prefix=/home/jaroslav/ffmpeg_build --pkg-config-flags=--static --extra-cflags=-I/home/jaroslav/ffmpeg_build/include --extra-ldflags=-L/home/jaroslav/ffmpeg_build/lib --bindir=/home/jaroslav/bin --enable-gpl --enable-libass --enable-libfdk-aac --enable-libfreetype --enable-libmp3lame --enable-libopus --enable-libtheora --enable-libvorbis --enable-libvpx --enable-libx264 --enable-libx265 --enable-nvenc --enable-libmfx --enable-libxvid --enable-libgsm --enable-libopencore-amrnb --enable-version3 --enable-nonfree
  libavutil      55. 35.100 / 55. 35.100
  libavcodec     57. 66.101 / 57. 66.101
  libavformat    57. 57.100 / 57. 57.100
  libavdevice    57.  2.100 / 57.  2.100
  libavfilter     6. 66.100 /  6. 66.100
  libswscale      4.  3.100 /  4.  3.100
  libswresample   2.  4.100 /  2.  4.100
  libpostproc    54.  2.100 / 54.  2.100
Input #0, yuv4mpegpipe, from 'Input/y4m/old_town_cross_2160p50.y4m':
  Duration: 00:00:10.00, start: 0.000000, bitrate: 4976642 kb/s
    Stream #0:0: Video: rawvideo (I420 / 0x30323449), yuv420p(progressive), 3840x2160, SAR 1:1 DAR 16:9, 50 fps, 50 tbr, 50 tbn, 50 tbc
[libx264 @ 0x3a58120] using SAR=1/1
[libx264 @ 0x3a58120] DPB size (8 frames, 259200 mbs) > level limit (5 frames, 184320 mbs)
[libx264 @ 0x3a58120] using cpu capabilities: MMX2 SSE2Fast SSSE3 SSE4.2 AVX FMA3 AVX2 LZCNT BMI2
[libx264 @ 0x3a58120] profile High, level 5.2
[libx264 @ 0x3a58120] 264 - core 148 - H.264/MPEG-4 AVC codec - Copyleft 2003-2016 - http://www.videolan.org/x264.html - options: cabac=1 ref=8 deblock=1:0:0 analyse=0x3:0x133 me=umh subme=9 psy=1 psy_rd=1.00:0.00 mixed_ref=1 me_range=16 chroma_me=1 trellis=2 8x8dct=1 cqm=0 deadzone=21,11 fast_pskip=1 chroma_qp_offset=-2 threads=6 lookahead_threads=1 sliced_threads=0 nr=0 decimate=1 interlaced=0 bluray_compat=0 constrained_intra=0 bframes=3 b_pyramid=2 b_adapt=2 b_bias=0 direct=3 weightb=1 open_gop=0 weightp=2 keyint=250 keyint_min=25 scenecut=40 intra_refresh=0 rc_lookahead=60 rc=abr mbtree=1 bitrate=6000 ratetol=1.0 qcomp=0.60 qpmin=0 qpmax=69 qpstep=4 ip_ratio=1.40 aq=1:1.00
Output #0, matroska, to 'Output/x264/encoded/old_town_cross_2160p50slower6000k.mkv':
  Metadata:
    encoder         : Lavf57.57.100
    Stream #0:0: Video: h264 (libx264) (H264 / 0x34363248), yuv420p, 3840x2160 [SAR 1:1 DAR 16:9], q=-1--1, 6000 kb/s, 50 fps, 1k tbn, 50 tbc
    Metadata:
      encoder         : Lavc57.66.101 libx264
    Side data:
      cpb: bitrate max/min/avg: 0/0/6000000 buffer size: 0 vbv_delay: -1
Stream mapping:
  Stream #0:0 -> #0:0 (rawvideo (native) -> h264 (libx264))
Press [q] to stop, [?] for help
frame=   62 fps=0.0 q=0.0 size=       0kB time=00:00:00.00 bitrate=N/A speed=   0x    frame=   67 fps= 17 q=0.0 size=       0kB time=00:00:00.00 bitrate=N/A speed=   0x    frame=   72 fps= 16 q=38.0 size=       1kB time=-00:00:00.01 bitrate=N/A speed=N/A    frame=   77 fps= 14 q=45.0 size=       1kB time=00:00:00.08 bitrate=  72.7kbits/s speed=0.0151x    frame=   81 fps= 14 q=42.0 size=       1kB time=00:00:00.16 bitrate=  36.6kbits/s speed=0.0272x    frame=   84 fps= 13 q=42.0 size=       1kB time=00:00:00.22 bitrate=  26.6kbits/s speed=0.034x    frame=   88 fps= 12 q=41.0 size=       1kB time=00:00:00.30 bitrate=  19.6kbits/s speed=0.0419x    frame=   92 fps= 12 q=40.0 size=       1kB time=00:00:00.38 bitrate=  15.5kbits/s speed=0.0477x    frame=   96 fps= 11 q=38.0 size=       1kB time=00:00:00.46 bitrate=  12.8kbits/s speed=0.0535x    frame=  100 fps= 10 q=38.0 size=       1kB time=00:00:00.54 bitrate=  10.9kbits/s speed=0.0566x    frame=  104 fps= 10 q=38.0 size=       1kB time=00:00:00.62 bitrate=   9.5kbits/s speed=0.0611x    frame=  107 fps=9.8 q=38.0 size=       1kB time=00:00:00.68 bitrate=   8.6kbits/s speed=0.0624x    frame=  111 fps=9.6 q=37.0 size=       1kB time=00:00:00.76 bitrate=   7.7kbits/s speed=0.0657x    frame=  114 fps=9.3 q=37.0 size=       1kB time=00:00:00.82 bitrate=   7.2kbits/s speed=0.0673x    frame=  116 fps=9.0 q=37.0 size=       1kB time=00:00:00.86 bitrate=   6.8kbits/s speed=0.0669x    frame=  119 fps=8.9 q=37.0 size=       1kB time=00:00:00.92 bitrate=   6.4kbits/s speed=0.0687x    frame=  122 fps=8.6 q=37.0 size=       1kB time=00:00:00.98 bitrate=   6.0kbits/s speed=0.069x    frame=  126 fps=8.5 q=37.0 size=       1kB time=00:00:01.06 bitrate=   5.5kbits/s speed=0.0712x    frame=  130 fps=8.2 q=37.0 size=       1kB time=00:00:01.14 bitrate=   5.2kbits/s speed=0.072x    frame=  134 fps=8.0 q=36.0 size=       1kB time=00:00:01.22 bitrate=   4.8kbits/s speed=0.0727x    frame=  138 fps=7.8 q=36.0 size=       1kB time=00:00:01.30 bitrate=   4.5kbits/s speed=0.0737x    frame=  141 fps=7.8 q=36.0 size=       1kB time=00:00:01.36 bitrate=   4.3kbits/s speed=0.0749x    frame=  143 fps=7.6 q=36.0 size=       1kB time=00:00:01.40 bitrate=   4.2kbits/s speed=0.0746x    frame=  146 fps=7.6 q=36.0 size=       1kB time=00:00:01.46 bitrate=   4.0kbits/s speed=0.0756x    frame=  148 fps=7.4 q=36.0 size=       1kB time=00:00:01.50 bitrate=   3.9kbits/s speed=0.0751x    frame=  151 fps=7.4 q=36.0 size=       1kB time=00:00:01.56 bitrate=   3.8kbits/s speed=0.0762x    frame=  154 fps=7.2 q=36.0 size=       1kB time=00:00:01.62 bitrate=   3.6kbits/s speed=0.0763x    frame=  158 fps=7.1 q=36.0 size=       1kB time=00:00:01.70 bitrate=   3.5kbits/s speed=0.0766x    frame=  162 fps=7.1 q=36.0 size=       1kB time=00:00:01.78 bitrate=   3.3kbits/s speed=0.0778x    frame=  165 fps=6.9 q=36.0 size=       1kB time=00:00:01.84 bitrate=   3.2kbits/s speed=0.0773x    frame=  170 fps=6.9 q=36.0 size=       1kB time=00:00:01.94 bitrate=   3.0kbits/s speed=0.0792x    frame=  172 fps=6.9 q=36.0 size=       1kB time=00:00:01.98 bitrate=   3.0kbits/s speed=0.0791x    frame=  174 fps=6.7 q=36.0 size=       1kB time=00:00:02.02 bitrate=   2.9kbits/s speed=0.0778x    frame=  179 fps=6.8 q=36.0 size=       1kB time=00:00:02.12 bitrate=   2.8kbits/s speed=0.0801x    frame=  180 fps=6.6 q=36.0 size=       1kB time=00:00:02.14 bitrate=   2.8kbits/s speed=0.0785x    frame=  184 fps=6.6 q=36.0 size=       1kB time=00:00:02.22 bitrate=   2.7kbits/s speed=0.0799x    frame=  187 fps=6.6 q=36.0 size=       1kB time=00:00:02.28 bitrate=   2.6kbits/s speed=0.08x    frame=  188 fps=6.4 q=36.0 size=       1kB time=00:00:02.30 bitrate=   2.6kbits/s speed=0.0789x    frame=  192 fps=6.4 q=36.0 size=       1kB time=00:00:02.38 bitrate=   2.5kbits/s speed=0.0798x    frame=  195 fps=6.4 q=36.0 size=       1kB time=00:00:02.44 bitrate=   2.4kbits/s speed=0.0802x    frame=  197 fps=6.3 q=36.0 size=       1kB time=00:00:02.48 bitrate=   2.4kbits/s speed=0.0798x    frame=  200 fps=6.3 q=36.0 size=       1kB time=00:00:02.54 bitrate=   2.3kbits/s speed=0.0803x    frame=  202 fps=6.3 q=36.0 size=       1kB time=00:00:02.58 bitrate=   2.3kbits/s speed=0.0802x    frame=  205 fps=6.2 q=36.0 size=       1kB time=00:00:02.64 bitrate=   2.2kbits/s speed=0.0799x    frame=  208 fps=6.2 q=36.0 size=       1kB time=00:00:02.70 bitrate=   2.2kbits/s speed=0.0803x    frame=  211 fps=6.1 q=36.0 size=       1kB time=00:00:02.76 bitrate=   2.1kbits/s speed=0.0799x    frame=  215 fps=6.1 q=36.0 size=       1kB time=00:00:02.84 bitrate=   2.1kbits/s speed=0.0805x    frame=  218 fps=6.1 q=36.0 size=       1kB time=00:00:02.90 bitrate=   2.0kbits/s speed=0.0808x    frame=  220 fps=6.0 q=36.0 size=       1kB time=00:00:02.94 bitrate=   2.0kbits/s speed=0.0804x    frame=  223 fps=6.0 q=36.0 size=       1kB time=00:00:03.00 bitrate=   2.0kbits/s speed=0.0809x    frame=  226 fps=6.0 q=36.0 size=       1kB time=00:00:03.06 bitrate=   1.9kbits/s speed=0.081x    frame=  228 fps=5.9 q=36.0 size=       1kB time=00:00:03.10 bitrate=   1.9kbits/s speed=0.0807x    frame=  232 fps=5.9 q=36.0 size=       1kB time=00:00:03.18 bitrate=   1.9kbits/s speed=0.0813x    frame=  235 fps=5.9 q=36.0 size=       1kB time=00:00:03.24 bitrate=   1.8kbits/s speed=0.0811x    frame=  239 fps=5.9 q=35.0 size=       1kB time=00:00:03.32 bitrate=   1.8kbits/s speed=0.0814x    frame=  241 fps=5.8 q=35.0 size=       1kB time=00:00:03.36 bitrate=   1.8kbits/s speed=0.0813x    frame=  245 fps=5.9 q=35.0 size=       1kB time=00:00:03.44 bitrate=   1.7kbits/s speed=0.0823x    frame=  247 fps=5.8 q=35.0 size=       1kB time=00:00:03.48 bitrate=   1.7kbits/s speed=0.0817x    frame=  250 fps=5.8 q=35.0 size=       1kB time=00:00:03.54 bitrate=   1.7kbits/s speed=0.0819x    frame=  253 fps=5.8 q=35.0 size=       1kB time=00:00:03.60 bitrate=   1.6kbits/s speed=0.0822x    frame=  256 fps=5.7 q=35.0 size=       1kB time=00:00:03.66 bitrate=   1.6kbits/s speed=0.0819x    frame=  259 fps=5.7 q=35.0 size=       1kB time=00:00:03.72 bitrate=   1.6kbits/s speed=0.0822x    frame=  262 fps=5.7 q=35.0 size=       1kB time=00:00:03.78 bitrate=   1.6kbits/s speed=0.0823x    frame=  266 fps=5.7 q=35.0 size=       1kB time=00:00:03.86 bitrate=   1.5kbits/s speed=0.0824x    frame=  270 fps=5.7 q=35.0 size=       1kB time=00:00:03.94 bitrate=   1.5kbits/s speed=0.083x    frame=  272 fps=5.7 q=35.0 size=       1kB time=00:00:03.98 bitrate=   1.5kbits/s speed=0.0828x    frame=  274 fps=5.6 q=35.0 size=       1kB time=00:00:04.02 bitrate=   1.5kbits/s speed=0.0825x    frame=  278 fps=5.6 q=35.0 size=       1kB time=00:00:04.10 bitrate=   1.4kbits/s speed=0.083x    frame=  281 fps=5.6 q=35.0 size=       1kB time=00:00:04.16 bitrate=   1.4kbits/s speed=0.0825x    frame=  286 fps=5.6 q=35.0 size=       1kB time=00:00:04.26 bitrate=   1.4kbits/s speed=0.0835x    frame=  288 fps=5.6 q=35.0 size=       1kB time=00:00:04.30 bitrate=   1.4kbits/s speed=0.083x    frame=  291 fps=5.6 q=35.0 size=       1kB time=00:00:04.36 bitrate=   1.4kbits/s speed=0.0834x    frame=  294 fps=5.5 q=35.0 size=       1kB time=00:00:04.42 bitrate=   1.3kbits/s speed=0.0834x    frame=  296 fps=5.5 q=35.0 size=       1kB time=00:00:04.46 bitrate=   1.3kbits/s speed=0.0832x    frame=  300 fps=5.5 q=35.0 size=       1kB time=00:00:04.54 bitrate=   1.3kbits/s speed=0.0831x    frame=  304 fps=5.5 q=35.0 size=       1kB time=00:00:04.62 bitrate=   1.3kbits/s speed=0.0835x    frame=  306 fps=5.5 q=35.0 size=       1kB time=00:00:04.66 bitrate=   1.3kbits/s speed=0.0833x    frame=  309 fps=5.5 q=35.0 size=       1kB time=00:00:04.72 bitrate=   1.2kbits/s speed=0.0834x    frame=  312 fps=5.5 q=35.0 size=       1kB time=00:00:04.78 bitrate=   1.2kbits/s speed=0.0837x    frame=  313 fps=5.4 q=35.0 size=       1kB time=00:00:04.80 bitrate=   1.2kbits/s speed=0.0832x    frame=  316 fps=5.4 q=36.0 size=       1kB time=00:00:04.86 bitrate=   1.2kbits/s speed=0.0834x    frame=  321 fps=5.4 q=36.0 size=    3362kB time=00:00:04.96 bitrate=5551.6kbits/s speed=0.0835x    frame=  327 fps=5.4 q=36.0 size=    3362kB time=00:00:05.08 bitrate=5420.5kbits/s speed=0.0839x    frame=  331 fps=5.4 q=37.0 size=    3362kB time=00:00:05.16 bitrate=5336.5kbits/s speed=0.0844x    frame=  333 fps=5.4 q=37.0 size=    3362kB time=00:00:05.20 bitrate=5295.5kbits/s speed=0.0841x    frame=  335 fps=5.4 q=37.0 size=    3362kB time=00:00:05.24 bitrate=5255.0kbits/s speed=0.0839x    frame=  339 fps=5.3 q=37.0 size=    3362kB time=00:00:05.32 bitrate=5176.0kbits/s speed=0.0837x    frame=  341 fps=5.3 q=37.0 size=    3362kB time=00:00:05.36 bitrate=5137.4kbits/s speed=0.0837x    frame=  345 fps=5.3 q=37.0 size=    3362kB time=00:00:05.44 bitrate=5061.9kbits/s speed=0.0842x    frame=  347 fps=5.3 q=37.0 size=    3362kB time=00:00:05.48 bitrate=5024.9kbits/s speed=0.0837x    frame=  351 fps=5.3 q=37.0 size=    3362kB time=00:00:05.56 bitrate=4952.6kbits/s speed=0.084x    frame=  354 fps=5.3 q=37.0 size=    3362kB time=00:00:05.62 bitrate=4899.8kbits/s speed=0.0836x    frame=  360 fps=5.2 q=37.0 size=    3362kB time=00:00:05.74 bitrate=4797.4kbits/s speed=0.0835x    frame=  366 fps=5.2 q=37.0 size=    3362kB time=00:00:05.86 bitrate=4699.1kbits/s speed=0.0839x    frame=  368 fps=5.2 q=37.0 size=    3362kB time=00:00:05.90 bitrate=4667.3kbits/s speed=0.0838x    frame=  372 fps=5.2 q=37.0 size=    3362kB time=00:00:05.98 bitrate=4604.9kbits/s speed=0.0841x    frame=  375 fps=5.2 q=37.0 size=    3362kB time=00:00:06.04 bitrate=4559.1kbits/s speed=0.0838x    frame=  380 fps=5.2 q=36.0 size=    3362kB time=00:00:06.14 bitrate=4484.9kbits/s speed=0.0843x    frame=  381 fps=5.2 q=36.0 size=    3362kB time=00:00:06.16 bitrate=4470.3kbits/s speed=0.0838x    frame=  384 fps=5.2 q=36.0 size=    3362kB time=00:00:06.22 bitrate=4427.2kbits/s speed=0.084x    frame=  387 fps=5.2 q=36.0 size=    3362kB time=00:00:06.28 bitrate=4384.9kbits/s speed=0.0841x    frame=  388 fps=5.2 q=36.0 size=    3362kB time=00:00:06.30 bitrate=4371.0kbits/s speed=0.0838x    frame=  391 fps=5.1 q=36.0 size=    3362kB time=00:00:06.36 bitrate=4329.8kbits/s speed=0.0837x    frame=  395 fps=5.1 q=36.0 size=    3362kB time=00:00:06.44 bitrate=4276.0kbits/s speed=0.0839x    frame=  399 fps=5.1 q=36.0 size=    3362kB time=00:00:06.52 bitrate=4223.5kbits/s speed=0.0837x    frame=  403 fps=5.1 q=36.0 size=    3362kB time=00:00:06.60 bitrate=4172.3kbits/s speed=0.0836x    frame=  407 fps=5.1 q=36.0 size=    3362kB time=00:00:06.68 bitrate=4122.4kbits/s speed=0.0836x    frame=  411 fps=5.1 q=36.0 size=    3362kB time=00:00:06.76 bitrate=4073.6kbits/s speed=0.084x    frame=  413 fps=5.1 q=36.0 size=    3362kB time=00:00:06.80 bitrate=4049.6kbits/s speed=0.0839x    frame=  414 fps=5.1 q=36.0 size=    3362kB time=00:00:06.82 bitrate=4037.8kbits/s speed=0.0835x    frame=  418 fps=5.1 q=36.0 size=    3362kB time=00:00:06.90 bitrate=3991.0kbits/s speed=0.0839x    frame=  422 fps=5.1 q=36.0 size=    3362kB time=00:00:06.98 bitrate=3945.2kbits/s speed=0.0836x    frame=  426 fps=5.0 q=36.0 size=    3362kB time=00:00:07.06 bitrate=3900.5kbits/s speed=0.0837x    frame=  430 fps=5.0 q=36.0 size=    3362kB time=00:00:07.14 bitrate=3856.8kbits/s speed=0.0836x    frame=  434 fps=5.0 q=36.0 size=    3362kB time=00:00:07.22 bitrate=3814.1kbits/s speed=0.0835x    frame=  438 fps=5.0 q=36.0 size=    3362kB time=00:00:07.30 bitrate=3772.3kbits/s speed=0.0837x    frame=  439 fps=5.0 q=36.0 size=    3362kB time=00:00:07.32 bitrate=3762.0kbits/s speed=0.0834x    frame=  442 fps=5.0 q=36.0 size=    3362kB time=00:00:07.38 bitrate=3731.4kbits/s speed=0.0835x    frame=  446 fps=5.0 q=36.0 size=    3362kB time=00:00:07.46 bitrate=3691.4kbits/s speed=0.0836x    frame=  449 fps=5.0 q=36.0 size=    3362kB time=00:00:07.52 bitrate=3662.0kbits/s speed=0.0835x    frame=  453 fps=5.0 q=36.0 size=    3362kB time=00:00:07.60 bitrate=3623.4kbits/s speed=0.0832x    frame=  458 fps=5.0 q=36.0 size=    3362kB time=00:00:07.70 bitrate=3576.4kbits/s speed=0.0839x    frame=  460 fps=5.0 q=36.0 size=    3362kB time=00:00:07.74 bitrate=3557.9kbits/s speed=0.0836x    frame=  463 fps=5.0 q=36.0 size=    3362kB time=00:00:07.80 bitrate=3530.5kbits/s speed=0.0837x    frame=  466 fps=5.0 q=36.0 size=    3362kB time=00:00:07.86 bitrate=3503.6kbits/s speed=0.0838x    frame=  467 fps=4.9 q=36.0 size=    3362kB time=00:00:07.88 bitrate=3494.7kbits/s speed=0.0835x    frame=  471 fps=4.9 q=36.0 size=    3362kB time=00:00:07.96 bitrate=3459.6kbits/s speed=0.0835x    frame=  475 fps=4.9 q=36.0 size=    3362kB time=00:00:08.04 bitrate=3425.2kbits/s speed=0.0837x    frame=  477 fps=4.9 q=36.0 size=    3362kB time=00:00:08.08 bitrate=3408.2kbits/s speed=0.0836x    frame=  479 fps=4.9 q=36.0 size=    3362kB time=00:00:08.12 bitrate=3391.4kbits/s speed=0.0834x    frame=  483 fps=4.9 q=36.0 size=    3362kB time=00:00:08.20 bitrate=3358.3kbits/s speed=0.0837x    frame=  484 fps=4.9 q=36.0 size=    3362kB time=00:00:08.22 bitrate=3350.2kbits/s speed=0.0835x    frame=  487 fps=4.9 q=36.0 size=    3362kB time=00:00:08.28 bitrate=3325.9kbits/s speed=0.0836x    frame=  491 fps=4.9 q=36.0 size=    3362kB time=00:00:08.36 bitrate=3294.1kbits/s speed=0.0836x    frame=  495 fps=4.9 q=36.0 size=    3362kB time=00:00:08.44 bitrate=3262.8kbits/s speed=0.0837x    frame=  498 fps=4.9 q=36.0 size=    3362kB time=00:00:08.50 bitrate=3239.8kbits/s speed=0.0836x    frame=  500 fps=4.3 q=-1.0 Lsize=    7399kB time=00:00:09.94 bitrate=6096.9kbits/s speed=0.0853x    
video:7394kB audio:0kB subtitle:0kB other streams:0kB global headers:0kB muxing overhead: 0.059340%
bench: utime=449.040s
bench: maxrss=2611224kB
[libx264 @ 0x3a58120] frame I:3     Avg QP:32.68  size:256516
[libx264 @ 0x3a58120] frame P:138   Avg QP:34.35  size: 24600
[libx264 @ 0x3a58120] frame B:359   Avg QP:36.55  size:  9489
[libx264 @ 0x3a58120] consecutive B-frames:  1.0%  2.0% 23.4% 73.6%
[libx264 @ 0x3a58120] mb I  I16..4: 36.4% 57.6%  6.0%
[libx264 @ 0x3a58120] mb P  I16..4:  0.0%  0.0%  0.0%  P16..4: 25.3%  1.1%  3.6%  0.0%  0.0%    skip:70.0%
[libx264 @ 0x3a58120] mb B  I16..4:  0.0%  0.0%  0.0%  B16..8: 39.3%  0.1%  0.0%  direct: 0.0%  skip:60.6%  L0:47.6% L1:52.4% BI: 0.0%
[libx264 @ 0x3a58120] final ratefactor: 28.37
[libx264 @ 0x3a58120] 8x8 transform intra:57.6% inter:77.9%
[libx264 @ 0x3a58120] direct mvs  spatial:99.2% temporal:0.8%
[libx264 @ 0x3a58120] coded y,uvDC,uvAC intra: 65.2% 53.3% 27.9% inter: 1.4% 1.8% 0.0%
[libx264 @ 0x3a58120] i16 v,h,dc,p:  9% 23%  6% 62%
[libx264 @ 0x3a58120] i8 v,h,dc,ddl,ddr,vr,hd,vl,hu:  5%  6%  4% 13% 20% 13% 19%  8% 12%
[libx264 @ 0x3a58120] i4 v,h,dc,ddl,ddr,vr,hd,vl,hu:  3%  4%  2% 15% 19% 13% 20%  9% 15%
[libx264 @ 0x3a58120] i8c dc,h,v,p: 30% 46% 14%  9%
[libx264 @ 0x3a58120] Weighted P-Frames: Y:0.7% UV:0.0%
[libx264 @ 0x3a58120] ref P L0: 64.9% 23.1%  7.5%  1.2%  1.1%  0.8%  0.9%  0.3%  0.0%
[libx264 @ 0x3a58120] ref B L0: 84.2%  7.6%  4.8%  1.2%  1.0%  1.0%  0.4%
[libx264 @ 0x3a58120] ref B L1: 97.4%  2.6%
[libx264 @ 0x3a58120] kb/s:6056.77
